<svg id="Layer_1" data-name="Layer 1" xmlns="http://www.w3.org/2000/svg" viewBox="0 0 664.76709 191.11111"><defs><style>.cls-1{fill:#00293f;}</style></defs><title>CSS_logo_2019_darkblue_no border_v08</title><path class="cls-1" d="M168.98877,257.82178c0-35.73731,23.626-56.46338,50.84668-56.46338a45.44258,45.44258,0,0,1,32.39453,13.98l-12.8374,15.61914c-5.40479-5.03467-11.21729-8.57275-19.0127-8.57275-14.77148,0-26.436,13.02343-26.436,34.62011,0,22.1416,10.30273,35.00879,26.04736,35.00879,8.84522,0,15.80518-4.35547,21.07275-10.07031l12.83741,15.28906C244.957,307.63477,233.05664,313.04,219.11621,313.04,191.79785,313.04,168.98877,294.10352,168.98877,257.82178Z" transform="translate(-168.98877 -160.34576)"/><path class="cls-1" d="M258.68066,297.4668l13.98536-16.709c7.66015,6.668,17.59521,11.25586,26.459,11.25586,10.165,0,15.13965-4.00195,15.13965-10.39551,0-6.78222-6.12305-8.958-15.5332-12.82714l-13.99756-5.96875c-11.16162-4.53956-21.73731-13.7085-21.73731-29.35987,0-17.8501,15.94483-32.104,38.36524-32.104a49.79866,49.79866,0,0,1,34.65039,14.11621l-12.29248,15.34668c-7.09717-5.44336-13.84327-8.43652-22.35791-8.43652-8.396,0-13.74024,3.49707-13.74024,9.65771,0,6.60693,7.0459,9.00684,16.44727,12.75l13.72558,5.55957c13.15381,5.31787,21.36719,14.07764,21.36719,29.30127,0,17.88867-14.91357,33.38672-40.58154,33.38672A59.32392,59.32392,0,0,1,258.68066,297.4668Z" transform="translate(-168.98877 -160.34576)"/><path class="cls-1" d="M412.26807,301.88867l6.71142-8.95312c6.97559,5.61914,14.06494,9.5166,23.71387,9.5166,10.54541,0,15.78369-5.62207,15.78369-12.47852,0-8.2666-9.48242-11.9209-18.37256-15.22558-11.25683-4.11524-23.957-9.6543-23.957-23.20655,0-12.85351,10.29639-22.8042,27.70947-22.8042a40.71814,40.71814,0,0,1,24.97754,9.02784l-6.502,8.71c-5.53223-4.08789-11.21191-7.1499-18.31982-7.1499-10.11963,0-14.792,5.3955-14.792,11.521,0,7.63916,8.73389,10.54541,17.833,13.938,11.5874,4.36719,24.49658,9.08105,24.49658,24.37207,0,13.0293-10.34961,23.88379-29.30908,23.88379A48.23605,48.23605,0,0,1,412.26807,301.88867Z" transform="translate(-168.98877 -160.34576)"/><path class="cls-1" d="M489.50342,286.21875V241.79492H477.55127v-10.2915l12.56055-.78272,1.63379-22.52929h11.353V230.7207h21.76465v11.07422H503.09863V286.4541c0,9.82129,3.165,15.51172,12.42285,15.51172a26.87034,26.87034,0,0,0,9.15137-2.15723l2.626,10.25586c-4.50586,1.53125-9.88965,2.97559-14.90625,2.97559C495.29443,313.04,489.50342,302.20313,489.50342,286.21875Z" transform="translate(-168.98877 -160.34576)"/><path class="cls-1" d="M541.9043,281.62305V230.7207H555.499v49.14649c0,14.96484,4.52442,21.36914,15.15723,21.36914,8.21289,0,13.90332-4.07227,21.50781-13.53906V230.7207h13.59473v80.33594H594.52832l-1.14746-12.5791h-.45215c-7.44629,8.76855-15.4668,14.5625-26.49609,14.5625C549.50684,313.04,541.9043,302.11621,541.9043,281.62305Z" transform="translate(-168.98877 -160.34576)"/><path class="cls-1" d="M627.166,270.99316c0-26.05957,16.43945-42.25586,34.75878-42.25586,9.34278,0,15.4668,3.51416,22.51368,9.30811l-.57422-13.77978V193.31445H697.459V311.05664H686.22852l-1.14747-9.48242h-.45214c-6.2461,6.24609-14.80567,11.46582-24.375,11.46582C640.17773,313.04,627.166,297.7666,627.166,270.99316Zm56.69824,19.64454V248.52979c-6.85645-6.1084-13.03321-8.35352-19.59375-8.35352-12.84375,0-23.0586,12.3916-23.0586,30.69482,0,19.26172,7.96973,30.7295,22.04786,30.7295C670.69043,301.60059,677.12988,297.98047,683.86426,290.6377Z" transform="translate(-168.98877 -160.34576)"/><path class="cls-1" d="M722.12793,205.42529c0-5.33886,4.10352-8.78174,9.38965-8.78174s9.38965,3.44288,9.38965,8.78174c0,5.12989-4.10352,8.78174-9.38965,8.78174S722.12793,210.55518,722.12793,205.42529Zm2.48828,25.29541H738.21v80.33594H724.61621Z" transform="translate(-168.98877 -160.34576)"/><path class="cls-1" d="M759.30371,270.99316c0-26.8081,17.53418-42.25586,37.22559-42.25586,19.69238,0,37.22656,15.44776,37.22656,42.25586,0,26.59864-17.53418,42.04688-37.22656,42.04688C776.83789,313.04,759.30371,297.5918,759.30371,270.99316Zm60.40527,0c0-18.40966-9.36328-30.93847-23.17968-30.93847s-23.17969,12.52881-23.17969,30.93847c0,18.40918,9.36328,30.7295,23.17969,30.7295S819.709,289.40234,819.709,270.99316Z" transform="translate(-168.98877 -160.34576)"/><rect class="cls-1" x="202.59131" width="12.48897" height="191.11111"/></svg>